<svg xmlns="http://www.w3.org/2000/svg" viewBox="0 0 300 300"><path fill="#c41315" d="M0 0h300v300H0z"/><path d="M289.13 114.51v-4.82h-23.82v37.84h23.82v-4.88h-18.38V130.4h13.84v-4.88h-13.84v-11.01zm-254.97-2.8c-3.08-1.34-6.63-2.01-10.64-2.01H10.87v37.84h12.59c4.01 0 7.56-.68 10.67-2.04 3.1-1.36 5.53-3.44 7.29-6.24 1.76-2.8 2.64-6.32 2.64-10.55 0-4.39-.88-7.98-2.64-10.78-1.76-2.81-4.18-4.88-7.26-6.22zm.22 27.45c-2.63 2.33-6.31 3.49-11.03 3.49h-7.03v-28.08h6.86c4.99 0 8.77 1.22 11.32 3.66 2.55 2.44 3.83 5.97 3.83 10.58 0 4.58-1.32 8.03-3.95 10.35zm205.74-29.47h-5.45v37.84h25.14v-4.82h-19.69zm-30.82 0h-5.44v37.84h25.13v-4.82H209.3zm-18.67 22.13c0 2.27-.28 4.27-.85 6.01-.57 1.74-1.54 3.09-2.92 4.06-1.38.96-3.32 1.45-5.81 1.45-2.5 0-4.44-.48-5.84-1.45-1.4-.96-2.38-2.32-2.95-4.06-.57-1.74-.85-3.74-.85-6.01v-22.13h-5.45v23.43c0 2.87.54 5.47 1.62 7.8s2.73 4.17 4.96 5.53c2.23 1.36 5.07 2.04 8.51 2.04 3.44 0 6.27-.68 8.48-2.04 2.21-1.36 3.86-3.21 4.94-5.53 1.08-2.33 1.62-4.93 1.62-7.8v-23.43h-5.45v22.13zM54.25 130.4h13.84v-4.88H54.25v-11.01h18.38v-4.82H48.8v37.84h25.19v-4.88H54.25zm56.63 2.61h8.06v7.72c-1.06.83-2.36 1.5-3.91 2.01-1.55.51-3.42.77-5.62.77-2.65 0-5-.63-7.06-1.9-2.06-1.27-3.69-3.02-4.88-5.25s-1.79-4.8-1.79-7.72c0-2.76.54-5.28 1.62-7.55 1.08-2.27 2.63-4.08 4.65-5.45 2.02-1.36 4.42-2.04 7.18-2.04 1.93 0 3.57.31 4.94.94 1.36.62 2.51 1.39 3.46 2.3.94.91 1.72 1.8 2.33 2.67l3.86-3.29c-.72-1.06-1.72-2.16-3.01-3.32-1.29-1.15-2.88-2.13-4.79-2.92-1.91-.79-4.21-1.19-6.89-1.19-2.84 0-5.42.51-7.74 1.53a17.695 17.695 0 00-6.01 4.28c-1.68 1.83-2.98 3.95-3.89 6.35-.91 2.4-1.36 4.98-1.36 7.74 0 3.74.78 7.11 2.35 10.1 1.57 2.99 3.79 5.34 6.67 7.06 2.87 1.72 6.28 2.58 10.21 2.58 3.78 0 6.86-.52 9.25-1.56 2.38-1.04 4.27-2.2 5.67-3.49V128.3H110.9v4.71zm32.63-23.32l-14.81 37.84h5.73l3.91-10.55h15.54l3.91 10.55h6.07l-14.81-37.84h-5.54zm-3.57 22.69l6.18-16.62 6.13 16.62h-12.31zm149.19 24.85v-4.82h-23.82v37.84h23.82v-4.88h-18.38v-12.25h13.84v-4.88h-13.84v-11.01zM10.87 190.25h5.44v-16.56h13.96v-4.83H16.31v-11.57h18.33v-4.88H10.87zm32.28-37.84H37.7v37.84h25.13v-4.82H43.15zm27.91 20.71H84.9v-4.88H71.06v-11.01h18.38v-4.82H65.61v37.84H90.8v-4.88H71.06zm47.77 1.42c0 2.27-.28 4.27-.85 6.01-.57 1.74-1.54 3.09-2.92 4.06-1.38.96-3.32 1.45-5.81 1.45-2.5 0-4.44-.48-5.84-1.45-1.4-.96-2.38-2.32-2.95-4.06-.57-1.74-.85-3.74-.85-6.01v-22.13h-5.45v23.43c0 2.87.54 5.47 1.62 7.8s2.73 4.17 4.96 5.53c2.23 1.36 5.07 2.04 8.51 2.04 3.44 0 6.27-.68 8.48-2.04 2.21-1.36 3.86-3.21 4.94-5.53 1.08-2.33 1.62-4.93 1.62-7.8v-23.43h-5.45v22.13zm52.08-22.13l-14.62 37.36.26.48h5.28l3.91-10.55h15.54l3.91 10.55h6.07l-14.81-37.84h-5.54zm-3.58 22.69l6.18-16.62 6.13 16.62h-12.31zm-14.35-5.16c1.13-1.85 1.7-3.99 1.7-6.41 0-1.82-.42-3.57-1.28-5.28-.85-1.7-2.24-3.1-4.17-4.2-1.93-1.1-4.5-1.65-7.72-1.65h-12.08v37.84h5.28v-15.49h7.6l8.11 15.49h5.67l.19-.48-8.59-15.69c2.4-.9 4.15-2.27 5.29-4.13zm-11.01.23h-7.26v-13.05h7.15c2.27 0 4.05.58 5.33 1.73 1.29 1.15 1.93 2.77 1.93 4.85 0 1.97-.61 3.54-1.82 4.71s-2.98 1.76-5.33 1.76zm77.27 11.8l-20.65-29.56h-5.5v37.84h5.33v-29.61l20.71 29.61h5.44v-37.84h-5.33zm21.19-23.55c1.99-1.36 4.36-2.04 7.12-2.04 1.97 0 3.64.31 5.02.94 1.38.62 2.53 1.39 3.46 2.3.93.91 1.69 1.8 2.3 2.67l3.86-3.29c-.72-1.06-1.71-2.16-2.98-3.32-1.27-1.15-2.86-2.14-4.79-2.95-1.93-.81-4.24-1.22-6.92-1.22-2.84 0-5.42.52-7.74 1.56a18.051 18.051 0 00-6.01 4.31 19.653 19.653 0 00-3.89 6.35c-.91 2.4-1.36 4.98-1.36 7.74 0 3.74.79 7.1 2.38 10.07 1.59 2.97 3.81 5.31 6.67 7.03 2.86 1.72 6.14 2.58 9.84 2.58 2.65 0 4.97-.44 6.98-1.33 2-.89 3.67-1.93 4.99-3.12 1.32-1.19 2.27-2.22 2.84-3.09l-3.8-3.18c-.49.53-1.16 1.24-2.01 2.13-.85.89-2 1.69-3.43 2.41-1.44.72-3.29 1.08-5.56 1.08-2.69 0-5.01-.65-6.98-1.96-1.97-1.31-3.49-3.07-4.57-5.3s-1.62-4.71-1.62-7.43c0-2.76.54-5.27 1.62-7.52 1.06-2.25 2.59-4.05 4.58-5.42z" fill="#f6a500"/><path d="M87.07 243.61l7.67-20.55h5.15l7.52 20.55h-5.08l-1.57-4.71h-7.24l-1.57 4.71h-4.88zm7.51-8.32h5.05l-2.5-7.77-2.55 7.77zm14.99 8.32l-7.55-20.55h5.15l5.02 15.01 4.9-15.01h4.93l-7.55 20.55h-4.9zm22.05.52c-1.52 0-2.93-.27-4.22-.82-1.29-.54-2.43-1.31-3.41-2.3-.98-.99-1.73-2.14-2.27-3.45-.53-1.31-.8-2.73-.8-4.25 0-1.54.27-2.96.8-4.27.53-1.3 1.28-2.45 2.25-3.44.97-.99 2.1-1.75 3.41-2.3 1.3-.54 2.72-.82 4.24-.82s2.93.27 4.22.82a10.52 10.52 0 015.68 5.74c.53 1.31.8 2.73.8 4.27 0 1.52-.27 2.94-.8 4.25s-1.29 2.46-2.27 3.45c-.98.99-2.11 1.75-3.41 2.3-1.3.55-2.7.82-4.22.82zm0-4.38c1.21 0 2.25-.3 3.13-.89.87-.6 1.54-1.39 2-2.37.46-.99.69-2.06.69-3.24 0-1.17-.23-2.24-.69-3.22a5.633 5.633 0 00-2-2.34c-.87-.59-1.92-.88-3.13-.88s-2.25.29-3.13.88c-.87.59-1.55 1.37-2.02 2.34-.47.98-.71 2.05-.71 3.22 0 1.17.24 2.25.71 3.24.47.99 1.15 1.78 2.02 2.37.87.6 1.91.89 3.13.89zm28.31-2.83l3.17 2.9c-.58.78-1.31 1.5-2.2 2.16s-1.9 1.18-3 1.57c-1.11.39-2.3.59-3.57.59-2.07 0-3.91-.46-5.5-1.39a9.759 9.759 0 01-3.73-3.81c-.89-1.61-1.34-3.46-1.34-5.53 0-1.52.26-2.94.77-4.27.51-1.33 1.24-2.48 2.17-3.47.93-.99 2.05-1.76 3.36-2.31 1.3-.55 2.75-.83 4.33-.83 1.89 0 3.55.35 4.99 1.05a9.39 9.39 0 013.57 3.02l-3.17 3.05c-.62-.86-1.35-1.56-2.19-2.08-.84-.52-1.85-.79-3.02-.79-1.23 0-2.3.29-3.19.88-.89.59-1.58 1.37-2.06 2.36-.48.99-.72 2.07-.72 3.27 0 1.21.24 2.3.72 3.27.48.97 1.17 1.73 2.05 2.3.88.57 1.92.85 3.11.85.99 0 1.81-.13 2.47-.4.66-.27 1.22-.61 1.68-1.03.45-.44.89-.89 1.3-1.36zm2.86 6.69l7.67-20.55h5.15l7.52 20.55h-5.09l-1.57-4.71h-7.24l-1.57 4.71h-4.87zm7.52-8.32h5.05l-2.5-7.77-2.55 7.77zm15.42 8.32v-16.46h-6.66v-4.1h17.97v4.1h-6.63v16.46h-4.68zm11-2.9l2.99-3.24c.53.58 1.25 1.14 2.14 1.7s1.94.83 3.13.83c.47 0 .93-.09 1.39-.26.45-.17.83-.43 1.12-.77.3-.34.45-.74.45-1.22 0-.76-.37-1.36-1.11-1.79-.74-.43-1.91-.84-3.51-1.23-1.56-.39-2.86-1.08-3.88-2.06-1.03-.99-1.54-2.26-1.54-3.82 0-1.15.28-2.2.83-3.16.55-.96 1.39-1.73 2.5-2.31 1.11-.59 2.51-.88 4.19-.88 1.4 0 2.57.18 3.53.54.96.36 1.72.75 2.3 1.19.57.43.98.78 1.2 1.05l-2.68 2.96c-.45-.35-1.05-.74-1.79-1.19-.74-.44-1.61-.66-2.62-.66-.66 0-1.27.19-1.83.57-.57.38-.85.84-.85 1.37 0 .7.37 1.26 1.11 1.7.74.43 1.76.79 3.05 1.08 1.01.25 1.98.62 2.91 1.11.93.49 1.7 1.18 2.3 2.06.6.88.89 2.03.89 3.45 0 1.23-.35 2.33-1.05 3.3-.7.97-1.64 1.73-2.84 2.28s-2.53.83-4.01.83c-1.36 0-2.56-.16-3.61-.49-1.05-.33-1.96-.76-2.74-1.28-.78-.54-1.44-1.09-1.97-1.66zM87.64 266.96v-20.55h4.44l8.91 13.34v-13.34h4.59v20.55h-4.22l-9.12-13.59v13.59h-4.6zm29.07.53c-1.52 0-2.93-.27-4.22-.82-1.29-.54-2.43-1.31-3.41-2.3-.98-.99-1.73-2.14-2.27-3.45-.53-1.31-.8-2.73-.8-4.25 0-1.54.27-2.96.8-4.27.53-1.3 1.28-2.45 2.25-3.44.97-.99 2.1-1.75 3.41-2.3 1.3-.54 2.72-.82 4.24-.82s2.93.27 4.22.82a10.52 10.52 0 015.68 5.74c.53 1.31.8 2.73.8 4.27 0 1.52-.27 2.94-.8 4.25s-1.29 2.46-2.27 3.45c-.98.99-2.11 1.75-3.41 2.3-1.3.55-2.7.82-4.22.82zm0-4.38c1.21 0 2.25-.3 3.13-.89.87-.6 1.54-1.39 2-2.37.46-.99.69-2.06.69-3.24 0-1.17-.23-2.24-.69-3.22a5.633 5.633 0 00-2-2.34c-.87-.59-1.92-.88-3.13-.88s-2.25.29-3.13.88c-.87.59-1.55 1.37-2.02 2.34-.47.98-.71 2.05-.71 3.22 0 1.17.24 2.25.71 3.24.47.99 1.15 1.78 2.02 2.37.87.6 1.91.89 3.13.89zm16.14 3.85V250.5h-6.66v-4.1h17.97v4.1h-6.63v16.46h-4.68zm6.29 0l7.67-20.55h5.15l7.52 20.55h-5.09l-1.57-4.71h-7.24l-1.57 4.71h-4.87zm7.51-8.32h5.05l-2.5-7.77-2.55 7.77zm13.32 8.32v-20.55h4.65v20.55h-4.65zm5.47 0v-20.55h7.64c1.6 0 2.94.29 4.01.88 1.07.59 1.87 1.37 2.4 2.34.53.98.8 2.05.8 3.22 0 1.32-.29 2.48-.88 3.48a6.365 6.365 0 01-2.48 2.4l4.56 8.23h-5.12l-3.82-7.55h-2.59v7.55h-4.52zm4.53-11.27h2.87c.86 0 1.54-.26 2.03-.77.49-.51.74-1.16.74-1.94 0-.84-.25-1.51-.75-2s-1.18-.74-2.02-.74h-2.87v5.45zm11.82 11.27v-20.55h14.05v4.07h-9.4v4.01h7.3v3.94h-7.3v4.44h10.08v4.1h-14.73zm14.91-2.89l2.99-3.24c.53.58 1.25 1.14 2.14 1.7.89.55 1.94.83 3.13.83.47 0 .93-.09 1.39-.26.45-.17.83-.43 1.12-.77.3-.34.45-.74.45-1.22 0-.76-.37-1.36-1.11-1.79-.74-.43-1.91-.84-3.51-1.23-1.56-.39-2.86-1.08-3.88-2.06-1.03-.99-1.54-2.26-1.54-3.82 0-1.15.28-2.2.83-3.16.55-.96 1.39-1.73 2.5-2.31 1.11-.59 2.51-.88 4.19-.88 1.4 0 2.57.18 3.53.54.96.36 1.72.75 2.3 1.19.57.43.98.78 1.2 1.05l-2.68 2.96c-.45-.35-1.05-.74-1.79-1.19-.74-.44-1.61-.66-2.62-.66-.66 0-1.27.19-1.83.57-.57.38-.85.84-.85 1.37 0 .7.37 1.26 1.11 1.7.74.43 1.76.79 3.05 1.08 1.01.25 1.98.62 2.91 1.11.93.49 1.7 1.18 2.3 2.06.6.88.89 2.03.89 3.45 0 1.23-.35 2.33-1.05 3.3-.7.97-1.64 1.73-2.84 2.28-1.19.55-2.53.83-4.01.83-1.36 0-2.56-.16-3.61-.49-1.05-.33-1.96-.76-2.74-1.28-.78-.54-1.44-1.09-1.97-1.66z" fill="#f08700"/></svg>